# AST/ASF file generated using VICON BodyLanguage
# -----------------------------------------------
:version 1.10
:name VICON
:units
  mass 1.0
  length 0.45
  angle deg
:documentation
   .ast/.asf automatically generated from VICON data using
   VICON BodyBuilder and BodyLanguage model FoxedUp or BRILLIANT.MOD
:root
   order TX TY TZ RX RY RZ
   axis XYZ
   position 0 0 0  
   orientation 0 -0 0 
:bonedata
  begin
     id 1 
     name lhipjoint
     direction 0.500677 -0.737119 0.453848 
     length 2.34727 
     axis 0 -0 0  XYZ
  end
  begin
     id 2 
     name lfemur
     direction 0.34202 -0.939693 0  
     length 7.53653  
     axis 0 -0 20  XYZ
    dof rx ry rz
    limits (-160.0 20.0)
           (-70.0 70.0)
           (-60.0 70.0)
  end
  begin
     id 3 
     name ltibia
     direction 0.34202 -0.939693 0   
     length 6.85572   
     axis 0 -0 20   XYZ
    dof rx
    limits (-10.0 170.0)
  end
  begin
     id 4 
     name lfoot
     direction 0.155313 -0.426718 0.890949   
     length 2.18324   
     axis -90 -1.13533e-015 20   XYZ
    dof rx rz
    limits (-45.0 90.0)
           (-70.0 20.0)
  end
  begin
     id 5 
     name ltoes
     direction 1.53474e-011 -4.21647e-011 1   
     length 1.06748   
     axis -90 -1.13533e-015 20   XYZ
    dof rx
    limits (-90.0 20.0)
  end
  begin
     id 6 
     name rhipjoint
     direction -0.632471 -0.659587 0.406111   
     length 2.62319  
     axis 0 -0 0  XYZ 
  end
  begin
     id 7 
     name rfemur
     direction -0.34202 -0.939693 0   
     length 7.21735   
     axis 0 -0 -20   XYZ
    dof rx ry rz
    limits (-160.0 20.0)
           (-70.0 70.0)
           (-70.0 60.0)
  end
  begin
     id 8 
     name rtibia
     direction -0.34202 -0.939693 0   
     length 7.02558   
     axis 0 -0 -20   XYZ
    dof rx
    limits (-10.0 170.0)
 end
 begin
     id 9 
     name rfoot
     direction -0.16057 -0.441164 0.882945   
     length 2.10014  
     axis -90 1.13533e-015 -20   XYZ
    dof rx rz
    limits (-45.0 90.0)
           (-20.0 70.0)
  end
  begin
     id 10 
     name rtoes
     direction -1.53553e-011 -4.2192e-011 1   
     length 1.02554   
     axis -90 1.13533e-015 -20   XYZ
    dof rx
    limits (-90.0 20.0)
  end
  begin
     id 11 
     name lowerback
     direction 0.0401429 0.998861 -0.0258085   
     length 1.80848   
     axis 0 -0 0   XYZ
    dof rx ry rz
    limits (-20.0 45.0)
           (-30.0 30.0)
           (-30.0 30.0)
  end
  begin
     id 12 
     name upperback
     direction -0.0130978 0.999914 -0.000352645   
     length 1.8116   
     axis 0 -0 0   XYZ
    dof rx ry rz
    limits (-20.0 45.0)
           (-30.0 30.0)
           (-30.0 30.0)
  end
  begin
     id 13 
     name thorax
     direction -0.0300198 0.999453 0.0138573   
     length 1.81778   
     axis 0 -0 0   XYZ
    dof rx ry rz
    limits (-20.0 45.0)
           (-30.0 30.0)
           (-30.0 30.0)
  end
  begin
     id 14 
     name lowerneck
     direction -0.0401726 0.999191 -0.00173647   
     length 2.10594   
     axis 0 -0 0   XYZ
    dof rx ry rz
    limits (-20.0 45.0)
           (-30.0 30.0)
           (-30.0 30.0)
  end
  begin
     id 15 
     name upperneck
     direction 0.0119835 0.998501 0.0534085   
     length 2.07325   
     axis 0 -0 0   XYZ
    dof rx ry rz
    limits (-20.0 45.0)
           (-30.0 30.0)
           (-30.0 30.0)
  end
  begin
     id 16
     name head
     direction 0.00628309 0.999826 0.0175921  
     length 2.15096  
     axis 0 -0 0   XYZ
    dof rx ry rz
    limits (-20.0 45.0)
           (-30.0 30.0)
           (-30.0 30.0)
  end
  begin
     id 17 
     name lclavicle
     direction 0.895501 0.429681 -0.115981  
     length 4.18092  
     axis 0 -0 0   XYZ
    dof ry rz
    limits (-20.0 10.0)
           (0.0 20.0)
  end
  begin
     id 18 
     name lhumerus
     direction 1 -4.48961e-011 -3.38433e-028   
     length 5.77237   
     axis 180 -30 -90   XYZ
    dof rx ry rz
    limits (-60.0 90.0)
           (-90.0 90.0)
           (-90.0 90.0)
  end
  begin
     id 19
     name lradius
     direction 1 -4.4901e-011 1.11983e-026   
     length 2.91878   
     axis 180 -30 -90   XYZ
    dof rx
    limits (-10.0 170.0)
  end
  begin
     id 20
     name lwrist
     direction 1 -4.48934e-011 1.88176e-026   
     length 1.45939   
     axis -1.23311e-014 90 90   XYZ
    dof ry
    limits (-180.0 0.0)
 end
  begin
     id 21 
     name lhand
     direction 1 -4.4895e-011 3.76352e-026   
     length 1.06566   
     axis -2.40147e-014 90 90   XYZ
    dof rx rz
    limits (-90.0 90.0)
           (-45.0 45.0)
  end
  begin
     id 22 
     name lfingers
     direction 1 -4.49005e-011 7.52705e-026   
     length 0.859162   
     axis -4.80295e-014 90 90   XYZ
    dof rx
    limits (0.0 90.0)
  end
  begin
     id 23
     name lthumb
     direction 0.707107 -6.34885e-011 0.707107   
     length 1.23359   
     axis -90 45 -9.86935e-015   XYZ
    dof rx rz
    limits (-45.0 45.0)
           (-45.0 45.0)
  end
  begin
     id 24 
     name rclavicle
     direction -0.91006 0.40451 -0.0903492   
     length 4.23293  
     axis 0 -0 0   XYZ 
    dof ry rz
    limits (-10.0 20.0)
           (-20.0 0.0)
  end
  begin
     id 25 
     name rhumerus
     direction -1 -4.4897e-011 1.7415e-027  
     length 5.49854   
     axis 180 30 90   XYZ
    dof rx ry rz
    limits (-90.0 60.0)
           (-90.0 90.0)
           (-90.0 90.0)
  end
  begin
     id 26 
     name rradius
     direction -1 -4.48963e-011 1.21259e-026   
     length 3.1186   
     axis 180 30 90   XYZ
    dof rx
    limits (-10.0 170.0)
  end
  begin
     id 27 
     name rwrist
     direction -1 -4.48967e-011 1.88176e-026   
     length 1.5593   
     axis -1.23311e-014 -90 -90   XYZ
    dof ry
    limits (-180.0 0.0)
  end
  begin
     id 28
     name rhand
     direction -1 -4.4895e-011 3.76352e-026   
     length 0.71207   
     axis -2.40147e-014 -90 -90   XYZ
    dof rx rz
    limits (-90.0 90.0)
           (-45.0 45.0)
  end
  begin
     id 29
     name rfingers
     direction -1 -4.49005e-011 7.52705e-026   
     length 0.574089   
     axis -4.80295e-014 -90 -90   XYZ
    dof rx
    limits (0.0 90.0)
  end
  begin
     id 30
     name rthumb
     direction -0.707107 -6.34982e-011 0.707107   
     length 0.824281   
     axis -90 -45 9.86935e-015   XYZ
    dof rx rz
    limits (-45.0 45.0)
           (-45.0 45.0)
  end
:hierarchy
  begin
    root lhipjoint rhipjoint lowerback
    lhipjoint lfemur
    lfemur ltibia
    ltibia lfoot
    lfoot ltoes
    rhipjoint rfemur
    rfemur rtibia
    rtibia rfoot
    rfoot rtoes
    lowerback upperback
    upperback thorax
    thorax lowerneck lclavicle rclavicle
    lowerneck upperneck
    upperneck head
    lclavicle lhumerus
    lhumerus lradius
    lradius lwrist
    lwrist lhand lthumb
    lhand lfingers
    rclavicle rhumerus
    rhumerus rradius
    rradius rwrist
    rwrist rhand rthumb
    rhand rfingers
  end

#!OML:ASF C:\ViconDB\ViconDB\414\Spring2016\042216\male.ASF
:FULLY-SPECIFIED
:DEGREES
508
root 27.7314 18.253 -2.90859 -529.601 70.9571 -173.098
lowerback 9.25986 -4.19304 7.96717
upperback 0.363883 -4.72241 -0.432289
thorax -5.50141 -2.52056 -4.24394
lowerneck 3.69812 11.1721 -4.25807
upperneck -11.4906 14.7321 -1.66706
head -4.6864 7.58306 -0.634289
rclavicle -5.96354e-016 -1.2921e-015
rhumerus -13.582 -14.7167 -43.021
rradius 85.7472
rwrist -6.20545
rhand -0.496178 -31.9259
rfingers 7.12502
rthumb 25.115 -60.2941
lclavicle -5.96354e-016 -1.2921e-015
lhumerus -34.0932 35.3646 29.1886
lradius 76.5304
lwrist 21.7731
lhand -31.5037 17.5849
lfingers 7.12502
lthumb -4.7695 47.5112
rfemur -58.1917 -1.39232 23.6275
rtibia 93.1005
rfoot -11.3636 -3.3349
rtoes -13.4732
lfemur 4.18854 -7.88986 -11.3897
ltibia -3.02153e-014
lfoot -8.5472 2.95661
ltoes -31.4965
509
root 27.8152 18.4453 -2.88079 -528.633 69.6313 -172.416
lowerback 8.86429 -4.11211 8.55766
upperback 0.193103 -4.56718 -0.14055
thorax -5.46271 -2.4588 -4.30764
lowerneck 3.38059 11.0072 -4.39361
upperneck -10.8181 14.5284 -1.40485
head -4.40918 7.46746 -0.463199
rclavicle -1.31571e-014 -1.93815e-015
rhumerus -13.0694 -15.6953 -41.6876
rradius 86.6558
rwrist -6.07277
rhand -0.676811 -32.1385
rfingers 7.12502
rthumb 24.9419 -60.5308
lclavicle -1.31571e-014 -1.93815e-015
lhumerus -33.0362 35.1116 28.2729
lradius 77.8173
lwrist 22.7612
lhand -31.9065 17.7453
lfingers 7.12502
lthumb -5.15843 47.6625
rfemur -57.232 -2.24694 23.7706
rtibia 90.8495
rfoot -10.698 -3.63171
rtoes -13.4325
lfemur 3.426 -7.27287 -10.8051
ltibia 4.77083e-015
lfoot -5.38603 1.6727
ltoes -31.7878
510
root 27.8773 18.6255 -2.87155 -527.972 68.0696 -171.888
lowerback 8.75407 -4.14499 9.56708
upperback 0.0128601 -4.49316 0.0805665
thorax -5.64641 -2.45606 -4.64586
lowerneck 3.28201 10.8047 -4.39818
upperneck -10.3363 14.2583 -1.31187
head -4.21833 7.32329 -0.387983
rclavicle 1.48716e-014 -2.3966e-014
rhumerus -12.6035 -16.4663 -40.1777
rradius 87.5051
rwrist -5.78271
rhand -0.654854 -32.0457
rfingers 7.12502
rthumb 24.963 -60.4351
lclavicle 1.48716e-014 -2.3966e-014
lhumerus -31.6809 35.9873 27.6658
lradius 79.2791
lwrist 22.9552
lhand -31.6923 17.9189
lfingers 7.12502
lthumb -4.95164 47.8411
rfemur -55.9642 -3.39756 23.8242
rtibia 88.317
rfoot -9.96638 -3.69903
rtoes -12.7843
lfemur 2.67587 -6.90371 -10.3575
ltibia 7.95139e-015
lfoot -1.81971 1.22431
ltoes -32.5095
511
root 27.9571 18.7902 -2.84003 -529.095 66.7096 -173.544
lowerback 8.2381 -4.05404 9.25241
upperback -0.149019 -4.45071 0.19698
thorax -5.48557 -2.42658 -4.38028
lowerneck 3.09813 10.6055 -4.52784
upperneck -9.96364 13.9964 -1.20103
head -4.0642 7.18976 -0.289887
rclavicle 4.77083e-014 -1.02374e-014
rhumerus -12.0461 -17.1969 -38.8352
rradius 88.2408
rwrist -5.51358
rhand -0.877177 -32.0065
rfingers 7.12502
rthumb 24.7499 -60.4253
lclavicle 4.77083e-014 -1.02374e-014
lhumerus -30.4609 36.265 27.2254
lradius 80.8962
lwrist 23.6645
lhand -31.7302 18.1637
lfingers 7.12502
lthumb -4.98821 48.0849
rfemur -54.9996 -4.20551 22.967
rtibia 85.6787
rfoot -8.78609 -3.73326
rtoes -12.6497
lfemur 1.70814 -6.46603 -10.7674
ltibia -7.95139e-015
lfoot 1.97765 1.59011
ltoes -32.791
512
root 28.0282 18.9507 -2.81518 -528.809 65.1616 -173.683
lowerback 7.85548 -4.03387 9.64548
upperback -0.384129 -4.39422 0.527972
thorax -5.5167 -2.41123 -4.27122
lowerneck 2.94112 10.384 -4.87195
upperneck -9.5144 13.6914 -1.04955
head -3.90915 7.03808 -0.144191
rclavicle 4.72362e-014 -3.77691e-015
rhumerus -11.6049 -17.6199 -37.2841
rradius 88.9394
rwrist -5.1432
rhand -0.955067 -31.9891
rfingers 7.12502
rthumb 24.6753 -60.4181
lclavicle 4.72362e-014 -3.77691e-015
lhumerus -29.2933 36.2567 27.1659
lradius 82.6054
lwrist 25.9444
lhand -32.932 17.4201
lfingers 7.12502
lthumb -6.14861 47.3109
rfemur -53.6829 -4.88394 22.7182
rtibia 82.622
rfoot -7.53639 -3.57162
rtoes -12.5111
lfemur 0.773475 -6.09947 -10.5605
ltibia -2.3059e-014
lfoot 6.50156 2.31886
ltoes -33.2242
